<?xml version="1.0" encoding="UTF-8" standalone="no"?>
<!-- Created with Inkscape (http://www.inkscape.org/) -->

<svg
   xmlns:dc="http://purl.org/dc/elements/1.1/"
   xmlns:cc="http://creativecommons.org/ns#"
   xmlns:rdf="http://www.w3.org/1999/02/22-rdf-syntax-ns#"
   xmlns:svg="http://www.w3.org/2000/svg"
   xmlns="http://www.w3.org/2000/svg"
   xmlns:sodipodi="http://sodipodi.sourceforge.net/DTD/sodipodi-0.dtd"
   xmlns:inkscape="http://www.inkscape.org/namespaces/inkscape"
   width="3.6603839mm"
   height="5.6360822mm"
   viewBox="0 0 3.6603839 5.6360821"
   version="1.1"
   id="svg33"
   inkscape:version="0.92.1 r"
   sodipodi:docname="icon.svg">
  <defs
     id="defs27" />
  <sodipodi:namedview
     id="base"
     pagecolor="#ffffff"
     bordercolor="#666666"
     borderopacity="1.0"
     inkscape:pageopacity="0.0"
     inkscape:pageshadow="2"
     inkscape:zoom="11.2"
     inkscape:cx="-15.136512"
     inkscape:cy="24.113213"
     inkscape:document-units="mm"
     inkscape:current-layer="layer1"
     showgrid="false"
     inkscape:window-width="1440"
     inkscape:window-height="839"
     inkscape:window-x="0"
     inkscape:window-y="0"
     inkscape:window-maximized="1" />
  <metadata
     id="metadata30">
    <rdf:RDF>
      <cc:Work
         rdf:about="">
        <dc:format>image/svg+xml</dc:format>
        <dc:type
           rdf:resource="http://purl.org/dc/dcmitype/StillImage" />
        <dc:title />
      </cc:Work>
    </rdf:RDF>
  </metadata>
  <g
     inkscape:label="Capa 1"
     inkscape:groupmode="layer"
     id="layer1"
     transform="translate(-58.195427,-175.62618)">
    <path
       style="fill:#333333;fill-opacity:1;stroke:none;stroke-width:0.02284195"
       d="m 23.150391,23.833984 c -0.850859,0.469493 -1.552696,0.962365 -2.126953,1.445313 -0.555746,0.467263 -0.993995,0.92634 -1.339844,1.349609 -0.08266,0.101292 -0.160195,0.198922 -0.232422,0.294922 0.09146,0.09222 0.177446,0.173778 0.253906,0.242188 2.428679,2.175987 5.220071,5.135788 6.34961,6.082031 0.472474,-0.873147 1.268348,-1.494709 2.179687,-1.765625 -0.730534,-1.275213 -3.142373,-4.532275 -4.84375,-7.289063 -0.06482,-0.10507 -0.145141,-0.226713 -0.240234,-0.359375 z"
       transform="matrix(0.26458333,0,0,0.26458333,53.048971,169.32011)"
       id="path3021-5-5-9"
       inkscape:connector-curvature="0" />
    <path
       id="path3793-3-3-0"
       d="m 61.853336,179.01629 c -0.0016,0.004 -0.0025,0.007 -0.0042,0.0105 -0.01587,0.0368 -0.03285,0.0748 -0.05067,0.11287 -0.01782,0.0381 -0.03646,0.0764 -0.05602,0.11436 -0.01956,0.038 -0.03994,0.0757 -0.06105,0.11218 -0.02111,0.0365 -0.04306,0.0719 -0.06551,0.10557 -0.02246,0.0336 -0.04544,0.0653 -0.06905,0.0947 -0.0118,0.0147 -0.02383,0.0288 -0.03589,0.0421 -0.01206,0.0134 -0.02422,0.0259 -0.0365,0.0377 -0.01228,0.0118 -0.0246,0.0229 -0.03706,0.0331 -0.01243,0.0102 -0.02519,0.0194 -0.0378,0.0278 -0.01266,0.008 -0.02529,0.0156 -0.03808,0.0219 -0.0128,0.006 -0.02575,0.0116 -0.03868,0.0157 -0.01293,0.004 -0.02598,0.007 -0.03901,0.009 -0.01303,0.002 -0.02612,0.002 -0.03922,0.001 -0.0131,-8.2e-4 -0.02626,-0.003 -0.03941,-0.006 -0.01315,-0.004 -0.02624,-0.008 -0.03942,-0.0149 -0.01318,-0.006 -0.02649,-0.0119 -0.03975,-0.0162 -0.01326,-0.004 -0.02651,-0.007 -0.03982,-0.01 -0.01331,-0.002 -0.02654,-0.004 -0.03987,-0.004 -0.01333,-4.3e-4 -0.02667,5e-5 -0.04,0.001 -0.01332,0.001 -0.0267,0.003 -0.03997,0.006 -0.01328,0.003 -0.02646,0.007 -0.03966,0.0111 -0.0132,0.004 -0.02636,0.01 -0.03945,0.0156 -0.01309,0.006 -0.02623,0.0122 -0.03917,0.0193 -0.01295,0.007 -0.0257,0.0147 -0.03847,0.023 -0.01278,0.008 -0.02548,0.0171 -0.03806,0.0263 -0.0053,0.004 -0.01013,0.009 -0.01532,0.0126 0.342369,0.32895 0.490626,0.7116 0.388193,1.35292 -0.01678,0.10503 0.114867,0.11533 0.138398,0.0494 0.253191,-0.71006 0.541136,-1.52809 0.570505,-2.2055 z"
       style="fill:#b83d00;fill-opacity:1;stroke:none;stroke-width:0.0060436"
       inkscape:connector-curvature="0" />
    <path
       id="path3849-5-5-2"
       d="m 59.959241,178.35973 c -0.160076,0.4489 0.03055,0.93768 0.429925,1.16669 0.139747,0.0965 0.262261,0.19239 0.367084,0.29311 0.0052,-0.004 0.01005,-0.009 0.01532,-0.0126 0.01252,-0.009 0.02528,-0.0181 0.03805,-0.0263 0.01278,-0.008 0.02552,-0.0159 0.03847,-0.023 0.01295,-0.007 0.02608,-0.0135 0.03917,-0.0193 0.01309,-0.006 0.02625,-0.0111 0.03945,-0.0156 0.01319,-0.004 0.02638,-0.008 0.03966,-0.0111 0.01327,-0.003 0.02665,-0.005 0.03998,-0.006 0.01332,-0.001 0.02666,-0.002 0.03999,-0.001 0.01332,4.1e-4 0.02657,0.002 0.03988,0.004 0.01331,0.002 0.02656,0.006 0.03982,0.01 0.01326,0.004 0.02657,0.01 0.03975,0.0162 0.01318,0.006 0.02627,0.0113 0.03942,0.0149 0.01315,0.004 0.02631,0.006 0.03941,0.006 0.0131,8.1e-4 0.02618,2.7e-4 0.03921,-0.001 0.01303,-0.002 0.02609,-0.005 0.03901,-0.009 0.01293,-0.004 0.02588,-0.009 0.03868,-0.0157 0.0128,-0.006 0.02543,-0.0136 0.03808,-0.0219 0.01266,-0.008 0.02532,-0.0177 0.03778,-0.0278 0.01243,-0.0102 0.0248,-0.0213 0.03708,-0.0331 0.01228,-0.0118 0.02445,-0.0244 0.0365,-0.0377 0.01205,-0.0133 0.02408,-0.0275 0.03588,-0.0421 0.02361,-0.0293 0.0466,-0.0611 0.06906,-0.0947 0.02245,-0.0336 0.0444,-0.0691 0.06551,-0.10557 0.02111,-0.0365 0.04149,-0.0742 0.06105,-0.11217 0.01956,-0.038 0.0382,-0.0763 0.05602,-0.11436 0.01782,-0.0381 0.0348,-0.0761 0.05067,-0.11287 0.0016,-0.004 0.0025,-0.007 0.0042,-0.0105 0.01694,-0.39075 -0.05173,-0.73485 -0.26365,-0.98408 -0.103644,-0.11389 -0.236138,-0.20471 -0.391311,-0.26005 -0.504504,-0.1799 -1.059239,0.0831 -1.239135,0.58757 z"
       style="fill:#642200;fill-opacity:1;stroke:none;stroke-width:0.0060436"
       inkscape:connector-curvature="0" />
  </g>
</svg>
