<?xml version="1.0" encoding="UTF-8" standalone="no"?>
<!-- Created with Inkscape (http://www.inkscape.org/) -->

<svg
   xmlns:dc="http://purl.org/dc/elements/1.1/"
   xmlns:cc="http://creativecommons.org/ns#"
   xmlns:rdf="http://www.w3.org/1999/02/22-rdf-syntax-ns#"
   xmlns:svg="http://www.w3.org/2000/svg"
   xmlns="http://www.w3.org/2000/svg"
   xmlns:sodipodi="http://sodipodi.sourceforge.net/DTD/sodipodi-0.dtd"
   xmlns:inkscape="http://www.inkscape.org/namespaces/inkscape"
   width="63.311291"
   height="22.869038"
   viewBox="0 0 63.311291 22.869038"
   version="1.1"
   id="SVGRoot"
   inkscape:version="0.92.1 r"
   sodipodi:docname="logon.svg">
  <sodipodi:namedview
     id="base"
     pagecolor="#ffffff"
     bordercolor="#666666"
     borderopacity="1.0"
     inkscape:pageopacity="0.0"
     inkscape:pageshadow="2"
     inkscape:zoom="5.6568543"
     inkscape:cx="57.496661"
     inkscape:cy="14.438211"
     inkscape:document-units="px"
     inkscape:current-layer="layer1"
     showgrid="false"
     inkscape:window-width="1440"
     inkscape:window-height="839"
     inkscape:window-x="0"
     inkscape:window-y="0"
     inkscape:window-maximized="1"
     inkscape:grid-bbox="true" />
  <defs
     id="defs147" />
  <metadata
     id="metadata150">
    <rdf:RDF>
      <cc:Work
         rdf:about="">
        <dc:format>image/svg+xml</dc:format>
        <dc:type
           rdf:resource="http://purl.org/dc/dcmitype/StillImage" />
        <dc:title></dc:title>
      </cc:Work>
    </rdf:RDF>
  </metadata>
  <g
     id="layer1"
     inkscape:groupmode="layer"
     inkscape:label="Capa 1"
     transform="translate(15.064157,-7.0824991)">
    <text
       xml:space="preserve"
       style="font-style:normal;font-weight:normal;font-size:1.99629939px;line-height:125%;font-family:sans-serif;letter-spacing:0px;word-spacing:0px;fill:#b83d00;fill-opacity:1;stroke:none;stroke-width:0.04990749px;stroke-linecap:butt;stroke-linejoin:miter;stroke-opacity:1"
       x="-9.7240992"
       y="19.542311"
       id="text38-3-3-5"><tspan
         sodipodi:role="line"
         id="tspan36-6-6-5"
         x="-9.7240992"
         y="19.542311"
         style="font-style:normal;font-variant:normal;font-weight:normal;font-stretch:normal;font-size:19.96299171px;font-family:Dashley;-inkscape-font-specification:Dashley;fill:#b83d00;fill-opacity:1;stroke-width:0.04990749px">SAICyR</tspan></text>
    <path
       inkscape:connector-curvature="0"
       id="path3021-5-5-9"
       d="m -15.021173,25.129124 c 0.04082,0.0648 0.115535,0.121691 0.245394,0.135822 0.191497,0.01573 25.056851,2.109317 31.892678,1.881399 -0.01856,-0.08117 -0.03762,-0.164271 -0.05465,-0.249377 -0.106851,-0.533402 -0.184007,-1.147508 -0.203275,-1.840717 -0.02295,-0.824448 0.03585,-1.76115 0.221343,-2.807844 -6.945875,-0.08565 -31.659261,2.429692 -31.850356,2.448762 -0.205722,0.03507 -0.287268,0.170985 -0.293707,0.265212 0,0.0059 -4.11e-4,0.01207 -4.11e-4,0.0186 0,0.04276 0.01129,0.09773 0.04307,0.148137 z m 33.001872,1.966987 c 0.129357,-0.01207 0.245542,-0.02612 0.347054,-0.04167 3.223225,-0.494214 7.282302,-0.771577 8.730567,-1.043196 -0.374456,-0.919483 -0.349202,-1.928546 0.02025,-2.804587 -1.448963,-0.245489 -5.496411,-0.450886 -8.706409,-0.887326 -0.122324,-0.01663 -0.266358,-0.03051 -0.429303,-0.04135 -0.177674,0.955415 -0.2424,1.808789 -0.234019,2.559086 0.008,0.726016 0.08415,1.355915 0.191497,1.891888 0.02567,0.128101 0.0519,0.250268 0.08035,0.367151 z"
       style="fill:#333333;fill-opacity:1;stroke:none;stroke-width:0.02284197" />
    <path
       id="path3793-3-3-0"
       d="m 34.270599,22.591692 c 0.0072,0.0138 0.01367,0.02353 0.02082,0.03745 0.06942,0.134717 0.139443,0.275363 0.207914,0.418839 0.06848,0.143472 0.135448,0.289736 0.199431,0.438054 0.06398,0.148313 0.125067,0.298236 0.180964,0.447477 0.0559,0.149246 0.106702,0.298397 0.15097,0.444657 0.04422,0.146252 0.0817,0.289498 0.110694,0.428855 0.0145,0.06967 0.0269,0.138692 0.03688,0.205915 0.01002,0.06722 0.01741,0.132828 0.0225,0.197098 0.0051,0.06427 0.0079,0.126837 0.0077,0.187666 0,0.06083 -0.0037,0.120229 -0.0095,0.177137 -0.0061,0.05691 -0.01511,0.111301 -0.02743,0.163786 -0.01236,0.05249 -0.02801,0.102982 -0.04706,0.150568 -0.01905,0.04758 -0.04187,0.09269 -0.06807,0.134885 -0.02624,0.04219 -0.05609,0.08168 -0.08988,0.117991 -0.03384,0.0363 -0.07152,0.06968 -0.113388,0.09962 -0.04187,0.02994 -0.08764,0.05635 -0.137998,0.07942 -0.05035,0.02308 -0.09827,0.04881 -0.142634,0.07721 -0.04437,0.02842 -0.08549,0.05941 -0.124171,0.09276 -0.03864,0.03335 -0.07411,0.06893 -0.107347,0.106847 -0.03326,0.0379 -0.06388,0.07799 -0.09198,0.120069 -0.02809,0.04207 -0.05405,0.08622 -0.07726,0.132072 -0.02324,0.04585 -0.04407,0.09325 -0.06273,0.142478 -0.01868,0.04923 -0.03474,0.100424 -0.04911,0.152646 -0.01437,0.05222 -0.02727,0.105897 -0.03762,0.160723 -0.01039,0.05482 -0.0186,0.110431 -0.02525,0.167466 -0.0067,0.05703 -0.01121,0.115465 -0.01446,0.174315 -0.0016,0.02443 8.21e-4,0.05022 -4.9e-5,0.07492 1.782146,-0.210026 3.255165,0.275556 4.881701,2.113924 0.266354,0.301074 0.612414,-0.05855 0.476264,-0.285613 -1.465381,-2.443506 -3.162536,-5.247596 -5.069802,-6.959263 z"
       style="fill:#b83d00;fill-opacity:1;stroke:none;stroke-width:0.02284197"
       inkscape:connector-curvature="0" />
    <path
       id="path3849-5-5-2"
       d="m 27.807529,26.54577 c 0.926383,1.544801 2.81094,2.161436 4.438125,1.545072 0.617157,-0.176386 1.191192,-0.3039 1.736831,-0.368203 8.21e-4,-0.02468 -0.0016,-0.05048 4.9e-5,-0.07492 0.0029,-0.05885 0.0078,-0.117281 0.01445,-0.174316 0.0067,-0.05703 0.01487,-0.11264 0.02526,-0.167462 0.01039,-0.05482 0.02324,-0.108501 0.03762,-0.160727 0.01437,-0.05222 0.03043,-0.103413 0.04911,-0.152646 0.01864,-0.04923 0.03946,-0.09663 0.06273,-0.142474 0.0232,-0.04585 0.04916,-0.09 0.07726,-0.132072 0.02809,-0.04208 0.05874,-0.08216 0.09198,-0.120073 0.03318,-0.0379 0.06872,-0.07349 0.107347,-0.106846 0.03868,-0.03334 0.07981,-0.06436 0.124171,-0.09276 0.04437,-0.02842 0.09228,-0.05415 0.142634,-0.07722 0.05036,-0.02308 0.09613,-0.04948 0.137998,-0.07941 0.04187,-0.02994 0.07955,-0.06332 0.113388,-0.09963 0.0338,-0.0363 0.06363,-0.0758 0.08983,-0.117992 0.02624,-0.04219 0.04906,-0.0873 0.06812,-0.134885 0.01905,-0.04759 0.0347,-0.09808 0.04707,-0.150568 0.01232,-0.05248 0.02135,-0.106879 0.02743,-0.163786 0.0061,-0.0569 0.0092,-0.116304 0.0094,-0.177137 0,-0.06083 -0.0025,-0.123395 -0.0076,-0.187665 -0.0051,-0.06427 -0.01248,-0.12988 -0.0225,-0.197099 -0.01002,-0.06721 -0.02242,-0.136236 -0.03692,-0.205914 -0.02899,-0.139358 -0.06643,-0.282599 -0.110645,-0.428855 -0.04427,-0.146252 -0.09507,-0.295412 -0.15097,-0.444657 -0.0559,-0.149242 -0.116981,-0.299165 -0.180964,-0.447478 -0.06398,-0.148318 -0.130955,-0.294582 -0.19943,-0.438054 -0.06847,-0.143476 -0.138491,-0.284118 -0.207915,-0.418839 -0.0072,-0.01392 -0.01363,-0.02365 -0.02082,-0.03745 -1.10016,-0.987351 -2.269592,-1.612746 -3.505898,-1.592234 -0.581275,0.02924 -1.164443,0.198079 -1.698452,0.518294 -1.736134,1.041142 -2.299886,3.291877 -1.25872,5.028018 z"
       style="fill:#642200;fill-opacity:1;stroke:none;stroke-width:0.02284197"
       inkscape:connector-curvature="0" />
  </g>
</svg>
